<svg width="22" height="26" viewBox="0 0 22 26" fill="none" xmlns="http://www.w3.org/2000/svg">
<path d="M20.7815 17.359L20.7815 17.359L21.0489 17.6833C21.2806 17.9631 21.4272 18.3035 21.4713 18.664C21.5154 19.0246 21.4553 19.3903 21.2979 19.7177L21.2979 19.7177C20.9635 20.4169 20.2577 20.8528 19.4493 20.8528H2.55688C1.74457 20.8528 1.03396 20.4163 0.70063 19.714L0.700598 19.7139C0.543948 19.3866 0.484355 19.0212 0.528873 18.661C0.57339 18.3009 0.720154 17.961 0.951796 17.6816L0.951933 17.6815C1.03142 17.5838 1.10965 17.4895 1.1867 17.3966C1.19756 17.3835 1.2084 17.3704 1.21922 17.3573L1.20118 17.3424L1.21922 17.3573L1.21926 17.3573C1.82123 16.6307 2.30653 16.0449 2.6403 15.1242C2.9739 14.204 3.15563 12.9509 3.15563 10.8893C3.15563 9.02201 3.52962 7.48262 4.28678 6.25221C5.04381 5.02202 6.18502 4.09885 7.72283 3.46577L7.7229 3.46593L7.72534 3.46456C7.74426 3.45399 7.76128 3.44033 7.7757 3.42415L7.77752 3.42577L7.78066 3.41527C8.25346 1.83364 9.54547 0.776367 11.0001 0.776367C12.4547 0.776367 13.7472 1.83364 14.22 3.4169L14.2179 3.41753L14.2247 3.42544C14.2392 3.44233 14.2565 3.45651 14.276 3.46732L14.2759 3.46746L14.2784 3.46851C15.5965 4.0108 16.5953 4.74403 17.334 5.70982L17.334 5.70984C18.3357 7.01719 18.8451 8.76173 18.8451 10.8909C18.8451 12.9517 19.0271 14.2044 19.3608 15.1246C19.6942 16.0439 20.1786 16.6297 20.7787 17.3556L20.7815 17.359ZM7.3425 22.6514H7.34258H14.6587C14.6924 22.6513 14.7255 22.66 14.7548 22.6766C14.7842 22.6931 14.8088 22.717 14.8261 22.7458C14.8435 22.7747 14.8532 22.8075 14.8541 22.8412C14.8551 22.8749 14.8473 22.9082 14.8315 22.938C14.4592 23.6301 13.9064 24.2086 13.2319 24.612C12.5573 25.0155 11.7861 25.2289 11.0001 25.2295C10.2141 25.2287 9.44308 25.0153 8.76862 24.6119C8.09415 24.2084 7.54143 23.63 7.16908 22.9378L7.14844 22.9489L7.16916 22.938C7.15339 22.9082 7.14561 22.8748 7.14658 22.8411C7.14755 22.8074 7.15723 22.7745 7.17469 22.7456C7.19214 22.7167 7.21677 22.6929 7.24618 22.6764C7.27559 22.6599 7.30877 22.6512 7.3425 22.6514Z" fill="white" stroke="white" stroke-width="0.046875"/>
</svg>
