<svg width="42" height="42" viewBox="0 0 42 42" fill="none" xmlns="http://www.w3.org/2000/svg">
<rect width="42" height="42" rx="10" fill="#691F5F"/>
<path d="M10.3618 26.6955C10.3618 27.4009 10.642 28.0773 11.1408 28.5761C11.6395 29.0748 12.316 29.355 13.0214 29.355H28.9786C29.6839 29.355 30.3604 29.0748 30.8592 28.5761C31.3579 28.0773 31.6381 27.4009 31.6381 26.6955V19.3818H10.3618V26.6955ZM13.4963 23.0861C13.4963 22.7083 13.6464 22.3459 13.9136 22.0787C14.1808 21.8115 14.5432 21.6614 14.921 21.6614H17.2006C17.5785 21.6614 17.9409 21.8115 18.2081 22.0787C18.4753 22.3459 18.6254 22.7083 18.6254 23.0861V24.036C18.6254 24.4138 18.4753 24.7762 18.2081 25.0434C17.9409 25.3106 17.5785 25.4607 17.2006 25.4607H14.921C14.5432 25.4607 14.1808 25.3106 13.9136 25.0434C13.6464 24.7762 13.4963 24.4138 13.4963 24.036V23.0861ZM28.9786 12.6379H13.0214C12.316 12.6379 11.6395 12.9181 11.1408 13.4169C10.642 13.9157 10.3618 14.5921 10.3618 15.2975V16.5323H31.6381V15.2975C31.6381 14.5921 31.3579 13.9157 30.8592 13.4169C30.3604 12.9181 29.6839 12.6379 28.9786 12.6379Z" fill="white"/>
</svg>
