<svg width="46" height="53" viewBox="0 0 46 53" fill="none" xmlns="http://www.w3.org/2000/svg">
<path d="M20.1902 1.56516L2.80547 11.6066C1.07313 12.6108 0 14.4581 0 16.4587V36.5416C0 38.5422 1.06547 40.3972 2.80547 41.3937L20.1979 51.4351C21.064 51.9334 22.0299 52.1863 23.0033 52.1863V0.813965C22.0375 0.813965 21.0717 1.06692 20.1979 1.56516H20.1902Z" fill="#691F5F"/>
<path d="M43.1873 11.6066L25.8025 1.56516C24.9364 1.06692 23.9706 0.813965 22.9971 0.813965V52.1863C23.9629 52.1863 24.9287 51.9334 25.8025 51.4351L43.1949 41.3937C44.9273 40.3895 46.0004 38.5422 46.0004 36.5416V16.4587C46.0004 14.4581 44.9349 12.6031 43.1949 11.6066H43.1873Z" fill="#5F1C5E"/>
<g clip-path="url(#clip0_10137_1099)">
<path d="M20.5624 39.8133C20.3056 39.8146 20.0546 39.7375 19.8428 39.5924C19.631 39.4472 19.4685 39.2408 19.3772 39.0008L17.354 33.7399C17.3131 33.6339 17.2504 33.5376 17.17 33.4572C17.0897 33.3769 16.9934 33.3142 16.8874 33.2732L11.6249 31.2486C11.3852 31.1566 11.179 30.994 11.0336 30.7824C10.8881 30.5708 10.8103 30.3201 10.8103 30.0633C10.8103 29.8066 10.8881 29.5558 11.0336 29.3442C11.179 29.1326 11.3852 28.9701 11.6249 28.8781L16.8858 26.855C16.9919 26.814 17.0881 26.7513 17.1685 26.671C17.2489 26.5906 17.3115 26.4943 17.3525 26.3883L19.3772 21.1258C19.4692 20.8861 19.6317 20.6799 19.8433 20.5345C20.0549 20.3891 20.3056 20.3112 20.5624 20.3112C20.8192 20.3112 21.0699 20.3891 21.2815 20.5345C21.4931 20.6799 21.6556 20.8861 21.7476 21.1258L23.7708 26.3868C23.8117 26.4928 23.8744 26.5891 23.9548 26.6694C24.0351 26.7498 24.1314 26.8125 24.2374 26.8535L29.4679 28.8659C29.7174 28.9584 29.9323 29.1255 30.0834 29.3445C30.2345 29.5635 30.3145 29.8237 30.3124 30.0897C30.3085 30.342 30.229 30.5874 30.0842 30.794C29.9393 31.0006 29.7358 31.1589 29.4999 31.2486L24.239 33.2717C24.133 33.3127 24.0367 33.3754 23.9563 33.4557C23.8759 33.5361 23.8133 33.6324 23.7723 33.7384L21.7476 39.0008C21.6563 39.2408 21.4938 39.4472 21.282 39.5924C21.0702 39.7375 20.8192 39.8146 20.5624 39.8133V39.8133ZM14.4687 22.7508C14.3181 22.7508 14.1711 22.7052 14.047 22.62C13.9229 22.5348 13.8275 22.414 13.7735 22.2735L12.9173 20.0472C12.8987 19.9986 12.8701 19.9543 12.8332 19.9175C12.7964 19.8806 12.7522 19.852 12.7035 19.8335L10.4772 18.9773C10.3368 18.9232 10.216 18.8278 10.1308 18.7037C10.0456 18.5796 10 18.4326 10 18.2821C10 18.1316 10.0456 17.9846 10.1308 17.8605C10.216 17.7364 10.3368 17.641 10.4772 17.5869L12.7035 16.7307C12.7521 16.7121 12.7963 16.6834 12.8331 16.6466C12.87 16.6097 12.8986 16.5656 12.9173 16.5169L13.7658 14.3105C13.8137 14.1806 13.896 14.0662 14.004 13.9796C14.112 13.893 14.2416 13.8374 14.3788 13.8189C14.5435 13.7989 14.7102 13.8344 14.8524 13.9199C14.9946 14.0054 15.1042 14.1358 15.1638 14.2907L16.02 16.5169C16.0387 16.5656 16.0673 16.6097 16.1042 16.6466C16.141 16.6834 16.1852 16.7121 16.2338 16.7307L18.4601 17.5869C18.6005 17.641 18.7213 17.7364 18.8065 17.8605C18.8917 17.9846 18.9373 18.1316 18.9373 18.2821C18.9373 18.4326 18.8917 18.5796 18.8065 18.7037C18.7213 18.8278 18.6005 18.9232 18.4601 18.9773L16.2338 19.8335C16.1851 19.852 16.1409 19.8806 16.1041 19.9175C16.0672 19.9543 16.0386 19.9986 16.02 20.0472L15.1638 22.2735C15.1098 22.414 15.0144 22.5348 14.8903 22.62C14.7662 22.7052 14.6192 22.7508 14.4687 22.7508V22.7508ZM30.3124 26.8133C30.1482 26.8133 29.9878 26.7635 29.8525 26.6705C29.7171 26.5775 29.6132 26.4456 29.5542 26.2923L28.3944 23.2774C28.374 23.2243 28.3427 23.1761 28.3024 23.1358C28.2622 23.0956 28.2139 23.0642 28.1608 23.0438L25.1459 21.884C24.9927 21.825 24.861 21.721 24.7682 21.5856C24.6753 21.4503 24.6256 21.29 24.6256 21.1258C24.6256 20.9617 24.6753 20.8014 24.7682 20.6661C24.861 20.5307 24.9927 20.4267 25.1459 20.3677L28.1608 19.2078C28.2139 19.1874 28.2622 19.1561 28.3024 19.1158C28.3427 19.0756 28.374 19.0274 28.3944 18.9742L29.5456 15.9807C29.5982 15.8391 29.6881 15.7144 29.8059 15.6199C29.9236 15.5254 30.0648 15.4646 30.2144 15.4439C30.3941 15.4222 30.576 15.4611 30.7311 15.5544C30.8862 15.6478 31.0057 15.7903 31.0706 15.9594L32.2304 18.9742C32.2508 19.0274 32.2821 19.0756 32.3224 19.1158C32.3626 19.1561 32.4109 19.1874 32.464 19.2078L35.4789 20.3677C35.6321 20.4267 35.7638 20.5307 35.8566 20.6661C35.9495 20.8014 35.9992 20.9617 35.9992 21.1258C35.9992 21.29 35.9495 21.4503 35.8566 21.5856C35.7638 21.721 35.6321 21.825 35.4789 21.884L32.464 23.0438C32.4109 23.0642 32.3626 23.0956 32.3224 23.1358C32.2821 23.1761 32.2508 23.2243 32.2304 23.2774L31.0706 26.2923C31.0116 26.4456 30.9077 26.5775 30.7723 26.6705C30.637 26.7635 30.4766 26.8133 30.3124 26.8133Z" fill="white"/>
</g>
<defs>
<clipPath id="clip0_10137_1099">
<rect width="26" height="26" fill="white" transform="translate(10 13.814)"/>
</clipPath>
</defs>
</svg>
