<svg width="16" height="16" viewBox="0 0 16 16" fill="none" xmlns="http://www.w3.org/2000/svg">
<path d="M2.5 15.0005C2.36739 15.0005 2.24021 14.9478 2.14645 14.854C2.05268 14.7603 2 14.6331 2 14.5005V2.12955C2.00004 1.99855 2.03439 1.86983 2.09963 1.75623C2.16487 1.64263 2.25874 1.5481 2.37188 1.48205C2.75 1.26236 3.51187 1.00049 5 1.00049C6.16281 1.00049 7.46344 1.46018 8.61094 1.86549C9.535 2.19205 10.4078 2.50049 11 2.50049C11.7623 2.49815 12.5166 2.34412 13.2187 2.04736C13.3043 2.01127 13.3974 1.99689 13.4898 2.00552C13.5822 2.01415 13.671 2.04551 13.7484 2.09681C13.8257 2.14811 13.8892 2.21775 13.9331 2.29953C13.977 2.3813 14 2.47267 14 2.56549V9.42049C13.9999 9.54199 13.9643 9.66082 13.8977 9.76244C13.8311 9.86407 13.7364 9.94407 13.625 9.99267C13.3528 10.1117 12.3591 10.5005 11 10.5005C10.2456 10.5005 9.30062 10.2774 8.30031 10.0408C7.17594 9.77518 6.01344 9.50049 5 9.50049C3.84781 9.50049 3.25812 9.67486 3 9.78517V14.5005C3 14.6331 2.94732 14.7603 2.85355 14.854C2.75979 14.9478 2.63261 15.0005 2.5 15.0005Z" fill="#B3B3BE"/>
</svg>
