<svg width="46" height="53" viewBox="0 0 46 53" fill="none" xmlns="http://www.w3.org/2000/svg">
<path d="M20.1902 1.56516L2.80547 11.6066C1.07313 12.6108 0 14.4581 0 16.4587V36.5416C0 38.5422 1.06547 40.3972 2.80547 41.3937L20.1979 51.4351C21.064 51.9334 22.0299 52.1863 23.0033 52.1863V0.813965C22.0375 0.813965 21.0717 1.06692 20.1979 1.56516H20.1902Z" fill="#691F5F"/>
<path d="M43.1873 11.6066L25.8025 1.56516C24.9364 1.06692 23.9706 0.813965 22.9971 0.813965V52.1863C23.9629 52.1863 24.9287 51.9334 25.8025 51.4351L43.1949 41.3937C44.9273 40.3895 46.0004 38.5422 46.0004 36.5416V16.4587C46.0004 14.4581 44.9349 12.6031 43.1949 11.6066H43.1873Z" fill="#5F1C5E"/>
<path d="M13.0695 33.578C13.0695 33.5815 13.0695 33.5881 13.0654 33.5973C13.067 33.5912 13.068 33.5846 13.0695 33.578ZM32.3389 34.4123C32.1717 34.4087 32.0067 34.3743 31.852 34.3107L28.9686 33.2885L28.9473 33.2799C28.8844 33.2537 28.8168 33.2405 28.7487 33.2413C28.6859 33.2414 28.6237 33.2527 28.5649 33.2748C28.4948 33.3012 27.8636 33.5384 27.2014 33.7202C26.8424 33.8187 25.5927 34.1401 24.5897 34.1401C22.0263 34.1401 19.6294 33.155 17.8414 31.3659C16.9679 30.4978 16.2753 29.4651 15.8036 28.3275C15.332 27.1898 15.0907 25.97 15.0936 24.7385C15.0936 24.0968 15.1627 23.457 15.2998 22.8301C15.7462 20.7674 16.9284 18.891 18.6285 17.5489C20.3725 16.1808 22.5255 15.4383 24.7421 15.4404C27.3934 15.4404 29.8639 16.4561 31.6991 18.2933C33.4338 20.0336 34.3844 22.3218 34.3768 24.7359C34.3753 26.5298 33.8396 28.2826 32.8381 29.7709L32.8285 29.7851L32.7909 29.8359C32.7823 29.8476 32.7736 29.8588 32.7655 29.8704L32.7579 29.8841C32.7377 29.9185 32.7194 29.9539 32.703 29.9903L33.5023 32.831C33.5377 32.9482 33.5568 33.0696 33.5592 33.192C33.5594 33.3523 33.528 33.5111 33.4667 33.6592C33.4055 33.8074 33.3156 33.942 33.2023 34.0553C33.0889 34.1687 32.9543 34.2586 32.8062 34.3198C32.658 34.3811 32.4992 34.4125 32.3389 34.4123V34.4123Z" fill="white"/>
<path d="M25.2278 35.4191C25.1753 35.317 25.1015 35.2275 25.0113 35.1565C24.9212 35.0855 24.8168 35.0348 24.7053 35.0077C24.4117 34.93 24.0695 34.9432 23.808 34.9239C21.3386 34.7523 19.0149 33.6925 17.2663 31.9406C15.7118 30.3947 14.7015 28.3857 14.3875 26.216C14.3164 25.7214 14.3164 25.5985 14.3164 25.5985C14.3164 25.4335 14.2661 25.2724 14.1723 25.1366C14.0784 25.0009 13.9455 24.8969 13.7911 24.8386C13.6368 24.7803 13.4683 24.7703 13.3081 24.8101C13.148 24.8499 13.0037 24.9374 12.8946 25.0612C12.8946 25.0612 12.4944 25.4969 12.3055 25.9341C11.7757 27.1549 11.5497 28.4858 11.647 29.813C11.7443 31.1402 12.1619 32.424 12.8641 33.5544C12.9961 33.7743 12.9961 33.8758 12.9667 34.1043C12.828 34.8209 12.5853 36.0848 12.4589 36.7404C12.417 36.953 12.4326 37.1729 12.504 37.3775C12.5754 37.5821 12.7 37.7639 12.8651 37.9043L12.8885 37.9241C13.1068 38.0975 13.3774 38.192 13.6563 38.1922C13.8131 38.1924 13.9684 38.1615 14.1133 38.1013L16.8306 37.0527C16.9242 37.0171 17.0275 37.0171 17.1211 37.0527C18.191 37.4508 19.3047 37.6621 20.3599 37.6621C21.6747 37.6633 22.9736 37.3744 24.1639 36.8161C24.4412 36.6861 24.8749 36.5449 25.1288 36.2514C25.2249 36.1375 25.2855 35.998 25.3031 35.8501C25.3207 35.7021 25.2945 35.5523 25.2278 35.4191V35.4191Z" fill="white"/>
</svg>
