<svg width="46" height="53" viewBox="0 0 46 53" fill="none" xmlns="http://www.w3.org/2000/svg">
<path d="M20.1902 1.56516L2.80547 11.6066C1.07313 12.6108 0 14.4581 0 16.4587V36.5416C0 38.5422 1.06547 40.3972 2.80547 41.3937L20.1979 51.4351C21.064 51.9334 22.0299 52.1863 23.0033 52.1863V0.813965C22.0375 0.813965 21.0717 1.06692 20.1979 1.56516H20.1902Z" fill="#691F5F"/>
<path d="M43.1873 11.6066L25.8025 1.56516C24.9364 1.06692 23.9706 0.813965 22.9971 0.813965V52.1863C23.9629 52.1863 24.9287 51.9334 25.8025 51.4351L43.1949 41.3937C44.9273 40.3895 46.0004 38.5422 46.0004 36.5416V16.4587C46.0004 14.4581 44.9349 12.6031 43.1949 11.6066H43.1873Z" fill="#5F1C5E"/>
<path d="M28.4206 21.6764C31.2239 20.1215 34.6578 20.0243 35.9189 20.0617C35.9341 21.0111 35.8809 23.2014 35.1516 25.4141C35.0605 25.6981 34.9541 25.9747 34.8477 26.2438C34.7946 26.3784 34.7338 26.5055 34.673 26.64C34.5666 26.8643 34.4603 27.0886 34.3387 27.2979C34.2703 27.4175 34.2096 27.5296 34.1336 27.6492C33.9969 27.8735 33.8525 28.0903 33.693 28.2996C33.6322 28.3818 33.5714 28.464 33.503 28.5463C33.2979 28.8004 33.0928 29.0471 32.8649 29.2714C32.6825 29.4508 32.485 29.6227 32.2875 29.7797C32.2267 29.8246 32.1659 29.8694 32.1128 29.9143C31.9608 30.0264 31.8089 30.1385 31.6493 30.2432C31.5886 30.2806 31.5278 30.3254 31.467 30.3628C31.2695 30.4899 31.072 30.6095 30.8668 30.7141C30.8516 30.7141 30.8364 30.7291 30.8288 30.7366C30.5933 30.8562 30.3578 30.9758 30.1223 31.0804C30.0919 31.0954 30.0691 31.1029 30.0387 31.1178C29.826 31.2075 29.6133 31.2897 29.4006 31.372C29.3626 31.3869 29.3322 31.3944 29.2942 31.4093C27.4861 32.0448 25.6552 32.2242 24.4397 32.269C25.3969 31.2748 26.7644 29.6302 27.6684 27.5819C27.6836 27.552 27.6912 27.5296 27.7064 27.4997C27.7824 27.3278 27.8508 27.1558 27.9191 26.9839C27.9495 26.9017 27.9799 26.812 28.0103 26.7297C28.0711 26.5653 28.1243 26.4008 28.1774 26.2364C28.2458 26.0121 28.3066 25.7804 28.3598 25.5486C28.3902 25.429 28.413 25.3019 28.4358 25.1749C28.4661 25.0104 28.4965 24.8459 28.5193 24.674C28.5345 24.5544 28.5497 24.4348 28.5649 24.3152C28.5877 24.0835 28.6029 23.8517 28.6029 23.6125C28.6029 23.5602 28.6105 23.5153 28.6105 23.463C28.6105 23.3135 28.5953 23.1715 28.5877 23.0294C28.5801 22.8724 28.5801 22.7155 28.5573 22.5585C28.5345 22.3267 28.4889 22.095 28.4509 21.8633C28.4433 21.8035 28.4357 21.7437 28.4206 21.6839V21.6764ZM22.9962 14.8364C23.9534 15.7334 26.4681 18.3648 27.2354 21.6091C27.2962 21.8782 27.3494 22.1399 27.3873 22.409C27.3873 22.4613 27.4025 22.5061 27.4101 22.5585C27.4481 22.865 27.4709 23.164 27.4709 23.463C27.4709 23.762 27.4557 24.0087 27.4253 24.2778C27.4253 24.3301 27.4101 24.3899 27.4025 24.4423C27.3797 24.6441 27.3494 24.8385 27.3114 25.0328C27.2886 25.1599 27.2506 25.287 27.2202 25.4141C27.1898 25.5262 27.167 25.6383 27.1366 25.743C27.0835 25.9149 27.0303 26.0943 26.9695 26.2588C26.9543 26.3111 26.9315 26.3635 26.9163 26.4158C26.8404 26.6251 26.7568 26.8344 26.6656 27.0362C25.602 29.4583 23.7787 31.3495 23.0038 32.0821C22.8595 31.9476 22.6847 31.7756 22.4872 31.5738C22.4112 31.4916 22.3277 31.4019 22.2441 31.3122C22.1985 31.2673 22.1529 31.215 22.1073 31.1627C22.0466 31.0954 21.9858 31.0281 21.925 30.9533C21.849 30.8636 21.7655 30.7739 21.6895 30.6768C21.6439 30.6244 21.6059 30.5721 21.5603 30.5198C21.4464 30.3852 21.34 30.2432 21.2261 30.1012C21.2033 30.0787 21.1881 30.0563 21.1653 30.0264C20.7474 29.4882 20.322 28.8677 19.9422 28.1949C19.927 28.165 19.9042 28.1276 19.889 28.0977C19.7826 27.9109 19.6839 27.724 19.5927 27.5296C19.5623 27.4698 19.5319 27.4025 19.5015 27.3353C19.4255 27.1708 19.3496 26.9989 19.2736 26.8344C19.2356 26.7522 19.2052 26.6699 19.1748 26.5802C19.1141 26.4233 19.0609 26.2663 19.0077 26.1093C18.9773 26.0121 18.9393 25.9075 18.9089 25.8103C18.8634 25.6608 18.8254 25.5113 18.7874 25.3618C18.757 25.2496 18.7342 25.1375 18.7114 25.0254C18.681 24.8833 18.6582 24.7338 18.643 24.5843C18.6278 24.4647 18.6051 24.3451 18.5899 24.2255C18.5747 24.0685 18.5671 23.9115 18.5595 23.7471C18.5595 23.6424 18.5443 23.5378 18.5443 23.4331C18.5443 23.3284 18.5443 23.3135 18.5519 23.2612C18.5519 23.0369 18.5671 22.8126 18.5975 22.5884C18.6127 22.4688 18.6278 22.3566 18.6506 22.2445C18.681 22.0651 18.7114 21.8857 18.7494 21.7063C19.4787 18.4171 22.0466 15.726 23.0114 14.814L22.9962 14.8364ZM10.0735 20.0617C11.3422 20.0393 14.7609 20.129 17.5643 21.6764C17.5263 21.8707 17.5035 22.0576 17.4731 22.252C17.4579 22.3342 17.4427 22.4164 17.4351 22.5061C17.3971 22.8276 17.3819 23.149 17.3819 23.4705C17.3819 23.7919 17.4047 24.0909 17.4351 24.3899C17.4351 24.4498 17.4503 24.5096 17.4579 24.5768C17.4883 24.831 17.5339 25.0777 17.5794 25.3244C17.587 25.3767 17.5946 25.429 17.6098 25.4739C17.6706 25.7579 17.7466 26.0345 17.8302 26.3111C17.8529 26.3784 17.8757 26.4382 17.8985 26.5055C17.9669 26.7073 18.0353 26.9092 18.1188 27.111C18.1568 27.2007 18.1948 27.2904 18.2328 27.3876C18.3088 27.5745 18.3923 27.7539 18.4759 27.9258C18.5367 28.0454 18.5899 28.165 18.6506 28.2846C18.7342 28.4491 18.8254 28.6135 18.9089 28.7705C18.9773 28.8901 19.0457 29.0097 19.1141 29.1219C19.1748 29.2191 19.228 29.3162 19.2888 29.4059C19.3648 29.533 19.4483 29.6526 19.5243 29.7722C19.5471 29.8021 19.5699 29.832 19.5851 29.8619C19.775 30.146 19.9725 30.4076 20.1625 30.6618C20.1929 30.6992 20.2157 30.7366 20.246 30.7739C20.3448 30.9085 20.4512 31.0281 20.5499 31.1552C20.5651 31.1776 20.5879 31.2 20.6031 31.2225C20.9146 31.6037 21.2109 31.9326 21.4844 32.2167C21.4996 32.2316 21.5148 32.2466 21.53 32.2615C20.246 32.2167 18.2708 32.0149 16.3563 31.2823C16.3107 31.2673 16.2727 31.2524 16.2272 31.2299C16.0676 31.1627 15.9005 31.1029 15.7409 31.0281C15.6802 30.9982 15.6194 30.9683 15.5586 30.9384C15.3383 30.8337 15.118 30.7216 14.9053 30.602C14.7761 30.5272 14.647 30.46 14.5254 30.3777C14.4418 30.3254 14.3583 30.2656 14.2747 30.2133C14.1379 30.1236 14.0012 30.0264 13.872 29.9217C13.8037 29.8694 13.7353 29.8171 13.6669 29.7648C13.4694 29.6078 13.2795 29.4433 13.0971 29.2564C12.8692 29.0322 12.6565 28.7855 12.4514 28.5238C12.3906 28.4491 12.3374 28.3743 12.2842 28.2996C12.1095 28.0678 11.95 27.8286 11.798 27.5745C11.76 27.5072 11.7221 27.4399 11.6765 27.3726C11.5321 27.1259 11.403 26.8643 11.2814 26.5877C11.2358 26.4756 11.1827 26.3709 11.1371 26.2588C11.0155 25.9747 10.9092 25.6757 10.8104 25.3692C10.0887 23.164 10.0355 20.9886 10.0507 20.0467L10.0735 20.0617ZM12.6109 34.4668C8.66041 33.3006 6.21413 29.1443 5.5 27.7688C6.24452 27.3577 7.8779 26.5354 9.84556 26.0644C10.1115 26.8045 10.4533 27.5446 10.8788 28.2547C10.8864 28.2697 10.9016 28.2846 10.9092 28.2996C11.0991 28.6061 11.3042 28.8976 11.5245 29.1892C11.5397 29.2116 11.5549 29.2265 11.5701 29.249C11.798 29.533 12.0411 29.8096 12.2994 30.0638C12.4742 30.2357 12.6565 30.4002 12.8388 30.5497C12.9224 30.617 13.006 30.6842 13.0895 30.744C13.1883 30.8188 13.2871 30.901 13.3934 30.9758C13.5074 31.058 13.6289 31.1402 13.7505 31.215C13.8189 31.2598 13.8796 31.2972 13.948 31.3421C14.1 31.4392 14.2519 31.529 14.4038 31.6112C14.4266 31.6261 14.4494 31.6336 14.4722 31.6486C16.7514 32.8969 19.3268 33.2707 21.0817 33.3604C19.1217 34.25 15.7333 35.3937 12.6033 34.4668H12.6109ZM33.3739 34.4668C30.2363 35.4012 26.8479 34.25 24.8879 33.3604C24.9031 33.3604 24.9107 33.3604 24.9259 33.3604C25.6248 33.323 26.4605 33.2333 27.3646 33.0614C27.4025 33.0614 27.4329 33.0465 27.4709 33.039C27.6229 33.0091 27.7748 32.9792 27.9267 32.9418C27.9799 32.9269 28.0407 32.9194 28.0939 32.9044C28.2382 32.8671 28.3826 32.8371 28.5345 32.7998C28.6029 32.7848 28.6637 32.7624 28.732 32.7474C28.8764 32.7101 29.0131 32.6652 29.1575 32.6278C29.2259 32.6054 29.3018 32.583 29.3702 32.5606C29.5981 32.4858 29.8184 32.411 30.0463 32.3213C30.1603 32.2765 30.2743 32.2316 30.3882 32.1868C30.487 32.1494 30.5781 32.1046 30.6769 32.0597C30.7985 32.0074 30.92 31.9551 31.0416 31.8952C31.1327 31.8504 31.2239 31.8055 31.3151 31.7532C31.4366 31.6859 31.5658 31.6261 31.6873 31.5514C31.7709 31.4991 31.8545 31.4542 31.9456 31.4019C32.0748 31.3271 32.1963 31.2449 32.3255 31.1627C32.4015 31.1103 32.4774 31.058 32.5534 31.0057C32.6901 30.9085 32.8269 30.8038 32.956 30.6992C33.0168 30.6543 33.0776 30.6095 33.1308 30.5572C33.3207 30.4002 33.503 30.2357 33.6854 30.0563C33.9437 29.8021 34.1868 29.533 34.4071 29.2564C34.4299 29.2265 34.4527 29.1892 34.4831 29.1593C34.6958 28.8901 34.8857 28.6135 35.0604 28.3295C35.0832 28.2921 35.106 28.2547 35.1288 28.2174C35.3264 27.8959 35.5087 27.5595 35.6682 27.2231C35.6682 27.2156 35.6758 27.2007 35.6834 27.1932C35.8582 26.8195 36.0177 26.4382 36.1544 26.057C38.1221 26.5279 39.7555 27.3502 40.5 27.7614C39.7859 29.1368 37.3396 33.2931 33.3891 34.4593L33.3739 34.4668Z" fill="white"/>
</svg>
