<svg width="38" height="38" viewBox="0 0 38 38" fill="none" xmlns="http://www.w3.org/2000/svg">
<rect width="38" height="38" rx="10" fill="#691F5F"/>
<path d="M14.875 19C14.875 18.8177 14.9474 18.6428 15.0764 18.5139C15.2053 18.3849 15.3802 18.3125 15.5625 18.3125H21.75V13.8438C21.75 12.4688 20.2981 11.4375 19 11.4375H12.4687C11.8308 11.4382 11.2191 11.6919 10.768 12.143C10.3169 12.5941 10.0632 13.2058 10.0625 13.8438V24.1562C10.0632 24.7942 10.3169 25.4059 10.768 25.857C11.2191 26.3081 11.8308 26.5618 12.4687 26.5625H19.3437C19.9817 26.5618 20.5934 26.3081 21.0445 25.857C21.4956 25.4059 21.7493 24.7942 21.75 24.1562V19.6875H15.5625C15.3802 19.6875 15.2053 19.6151 15.0764 19.4861C14.9474 19.3572 14.875 19.1823 14.875 19ZM27.736 18.514L24.2985 15.0765C24.1685 14.953 23.9954 14.8852 23.8161 14.8875C23.6369 14.8898 23.4656 14.962 23.3388 15.0888C23.212 15.2156 23.1398 15.3869 23.1375 15.5661C23.1352 15.7454 23.203 15.9185 23.3265 16.0485L25.5901 18.3125H21.75V19.6875H25.5901L23.3265 21.9515C23.26 22.0147 23.2068 22.0906 23.1701 22.1747C23.1333 22.2588 23.1138 22.3494 23.1126 22.4411C23.1114 22.5329 23.1286 22.624 23.1632 22.709C23.1978 22.794 23.249 22.8712 23.3139 22.9361C23.3788 23.001 23.456 23.0522 23.541 23.0868C23.626 23.1214 23.7171 23.1386 23.8089 23.1374C23.9006 23.1362 23.9912 23.1167 24.0753 23.0799C24.1594 23.0432 24.2353 22.99 24.2985 22.9235L27.736 19.486C27.8648 19.3571 27.9372 19.1823 27.9372 19C27.9372 18.8177 27.8648 18.6429 27.736 18.514V18.514Z" fill="white"/>
</svg>
