<svg width="18" height="18" viewBox="0 0 18 18" fill="none" xmlns="http://www.w3.org/2000/svg">
<path d="M10.2438 5.05322L10.2382 5.03761H10.2217H2.25C2.10703 5.03761 1.96992 4.98081 1.86883 4.87972C1.76773 4.77862 1.71094 4.64151 1.71094 4.49854C1.71094 4.35557 1.76773 4.21846 1.86883 4.11737C1.96992 4.01627 2.10703 3.95948 2.25 3.95948H10.2217H10.2382L10.2438 3.94386C10.3585 3.61954 10.571 3.33876 10.852 3.14018C11.1329 2.94159 11.4685 2.83496 11.8125 2.83496C12.1565 2.83496 12.4921 2.94159 12.773 3.14018C13.054 3.33876 13.2664 3.61954 13.3812 3.94386L13.3868 3.95948H13.4033H15.75C15.893 3.95948 16.0301 4.01627 16.1312 4.11737C16.2323 4.21846 16.2891 4.35557 16.2891 4.49854C16.2891 4.64151 16.2323 4.77862 16.1312 4.87972C16.0301 4.98081 15.893 5.03761 15.75 5.03761H13.4033H13.3868L13.3812 5.05322C13.2664 5.37755 13.054 5.65832 12.773 5.85691C12.4921 6.05549 12.1565 6.16212 11.8125 6.16212C11.4685 6.16212 11.1329 6.05549 10.852 5.85691C10.571 5.65832 10.3585 5.37755 10.2438 5.05322ZM13.3812 12.9439L13.3868 12.9595H13.4033H15.75C15.893 12.9595 16.0301 13.0163 16.1312 13.1174C16.2323 13.2185 16.2891 13.3556 16.2891 13.4985C16.2891 13.6415 16.2323 13.7786 16.1312 13.8797C16.0301 13.9808 15.893 14.0376 15.75 14.0376H13.4033H13.3868L13.3812 14.0532C13.2664 14.3775 13.054 14.6583 12.773 14.8569C12.4921 15.0555 12.1565 15.1621 11.8125 15.1621C11.4685 15.1621 11.1329 15.0555 10.852 14.8569C10.571 14.6583 10.3585 14.3775 10.2438 14.0532L10.2382 14.0376H10.2217H2.25C2.10703 14.0376 1.96992 13.9808 1.86883 13.8797C1.76773 13.7786 1.71094 13.6415 1.71094 13.4985C1.71094 13.3556 1.76773 13.2185 1.86883 13.1174C1.96992 13.0163 2.10703 12.9595 2.25 12.9595H10.2217H10.2382L10.2438 12.9439C10.3585 12.6195 10.571 12.3388 10.852 12.1402C11.1329 11.9416 11.4685 11.835 11.8125 11.835C12.1565 11.835 12.4921 11.9416 12.773 12.1402C13.054 12.3388 13.2664 12.6195 13.3812 12.9439ZM7.75623 8.44386L7.76175 8.45948H7.77832H15.75C15.893 8.45948 16.0301 8.51627 16.1312 8.61737C16.2323 8.71846 16.2891 8.85557 16.2891 8.99854C16.2891 9.14151 16.2323 9.27862 16.1312 9.37972C16.0301 9.48081 15.893 9.5376 15.75 9.5376H7.77832H7.76175L7.75623 9.55322C7.64145 9.87755 7.42897 10.1583 7.14804 10.3569C6.86711 10.5555 6.53153 10.6621 6.1875 10.6621C5.84347 10.6621 5.50789 10.5555 5.22696 10.3569C4.94603 10.1583 4.73355 9.87755 4.61877 9.55322L4.61325 9.5376H4.59668H2.25C2.10703 9.5376 1.96992 9.48081 1.86883 9.37972C1.76773 9.27862 1.71094 9.14151 1.71094 8.99854C1.71094 8.85557 1.76773 8.71846 1.86883 8.61737C1.96992 8.51627 2.10703 8.45948 2.25 8.45948H4.59668H4.61325L4.61877 8.44386C4.73355 8.11954 4.94603 7.83876 5.22696 7.64018C5.50789 7.44159 5.84347 7.33496 6.1875 7.33496C6.53153 7.33496 6.86711 7.44159 7.14804 7.64018C7.42897 7.83876 7.64145 8.11954 7.75623 8.44386Z" fill="white" stroke="white" stroke-width="0.046875"/>
</svg>
