<svg width="42" height="42" viewBox="0 0 42 42" fill="none" xmlns="http://www.w3.org/2000/svg">
<rect width="42" height="42" rx="10" fill="#000026" fill-opacity="0.4"/>
<path d="M10.3613 26.6953C10.3613 27.4006 10.6415 28.0771 11.1403 28.5758C11.639 29.0746 12.3155 29.3548 13.0209 29.3548H28.9781C29.6835 29.3548 30.3599 29.0746 30.8587 28.5758C31.3574 28.0771 31.6376 27.4006 31.6376 26.6953V19.3815H10.3613V26.6953ZM13.4958 23.0859C13.4958 22.708 13.6459 22.3456 13.9131 22.0784C14.1803 21.8112 14.5427 21.6611 14.9205 21.6611H17.2001C17.578 21.6611 17.9404 21.8112 18.2076 22.0784C18.4748 22.3456 18.6249 22.708 18.6249 23.0859V24.0357C18.6249 24.4136 18.4748 24.776 18.2076 25.0432C17.9404 25.3104 17.578 25.4605 17.2001 25.4605H14.9205C14.5427 25.4605 14.1803 25.3104 13.9131 25.0432C13.6459 24.776 13.4958 24.4136 13.4958 24.0357V23.0859ZM28.9781 12.6377H13.0209C12.3155 12.6377 11.639 12.9179 11.1403 13.4167C10.6415 13.9154 10.3613 14.5919 10.3613 15.2972V16.532H31.6376V15.2972C31.6376 14.5919 31.3574 13.9154 30.8587 13.4167C30.3599 12.9179 29.6835 12.6377 28.9781 12.6377Z" fill="white"/>
</svg>
