<svg width="46" height="53" viewBox="0 0 46 53" fill="none" xmlns="http://www.w3.org/2000/svg">
<path d="M20.1902 1.56516L2.80547 11.6066C1.07313 12.6108 0 14.4581 0 16.4587V36.5416C0 38.5422 1.06547 40.3972 2.80547 41.3937L20.1979 51.4351C21.064 51.9334 22.0299 52.1863 23.0033 52.1863V0.813965C22.0375 0.813965 21.0717 1.06692 20.1979 1.56516H20.1902Z" fill="#691F5F"/>
<path d="M43.1873 11.6066L25.8025 1.56516C24.9364 1.06692 23.9706 0.813965 22.9971 0.813965V52.1863C23.9629 52.1863 24.9287 51.9334 25.8025 51.4351L43.1949 41.3937C44.9273 40.3895 46.0004 38.5422 46.0004 36.5416V16.4587C46.0004 14.4581 44.9349 12.6031 43.1949 11.6066H43.1873Z" fill="#5F1C5E"/>
<path d="M35.1875 22.7505C35.1866 21.8888 34.8438 21.0627 34.2346 20.4534C33.6253 19.8441 32.7992 19.5014 31.9375 19.5005H29.5V18.688C29.4993 18.0417 29.2423 17.4221 28.7853 16.9652C28.3284 16.5082 27.7088 16.2512 27.0625 16.2505H18.9375C18.2912 16.2512 17.6716 16.5082 17.2147 16.9652C16.7577 17.4221 16.5007 18.0417 16.5 18.688V19.5005H14.0625C13.2008 19.5014 12.3747 19.8441 11.7654 20.4534C11.1562 21.0627 10.8134 21.8888 10.8125 22.7505V25.188H35.1875V22.7505ZM27.875 19.5005H18.125V18.688C18.125 18.4725 18.2106 18.2658 18.363 18.1135C18.5153 17.9611 18.722 17.8755 18.9375 17.8755H27.0625C27.278 17.8755 27.4847 17.9611 27.637 18.1135C27.7894 18.2658 27.875 18.4725 27.875 18.688V19.5005ZM27.0625 27.2192C27.0625 27.5425 26.9341 27.8525 26.7055 28.081C26.477 28.3096 26.167 28.438 25.8438 28.438H20.1562C19.833 28.438 19.523 28.3096 19.2945 28.081C19.0659 27.8525 18.9375 27.5425 18.9375 27.2192V27.0161C18.9375 26.9622 18.9161 26.9106 18.878 26.8725C18.8399 26.8344 18.7882 26.813 18.7344 26.813H10.8125V34.1255C10.8125 34.9874 11.1549 35.8141 11.7644 36.4236C12.3739 37.0331 13.2005 37.3755 14.0625 37.3755H31.9375C32.7995 37.3755 33.6261 37.0331 34.2356 36.4236C34.8451 35.8141 35.1875 34.9874 35.1875 34.1255V26.813H27.2656C27.2118 26.813 27.1601 26.8344 27.122 26.8725C27.0839 26.9106 27.0625 26.9622 27.0625 27.0161V27.2192Z" fill="white"/>
</svg>
