<svg width="46" height="53" viewBox="0 0 46 53" fill="none" xmlns="http://www.w3.org/2000/svg">
<path d="M20.1902 1.56516L2.80547 11.6066C1.07313 12.6108 0 14.4581 0 16.4587V36.5416C0 38.5422 1.06547 40.3972 2.80547 41.3937L20.1979 51.4351C21.064 51.9334 22.0299 52.1863 23.0033 52.1863V0.813965C22.0375 0.813965 21.0717 1.06692 20.1979 1.56516H20.1902Z" fill="#691F5F"/>
<path d="M43.1873 11.6066L25.8025 1.56516C24.9364 1.06692 23.9706 0.813965 22.9971 0.813965V52.1863C23.9629 52.1863 24.9287 51.9334 25.8025 51.4351L43.1949 41.3937C44.9273 40.3895 46.0004 38.5422 46.0004 36.5416V16.4587C46.0004 14.4581 44.9349 12.6031 43.1949 11.6066H43.1873Z" fill="#5F1C5E"/>
<path d="M23 16.2524C17.1668 16.2524 12.4375 20.9817 12.4375 26.8149C12.4375 32.6482 17.1668 37.3774 23 37.3774C28.8332 37.3774 33.5625 32.6482 33.5625 26.8149C33.5625 20.9817 28.8332 16.2524 23 16.2524ZM27.875 28.4399H23C22.7845 28.4399 22.5778 28.3543 22.4255 28.202C22.2731 28.0496 22.1875 27.8429 22.1875 27.6274V20.3149C22.1875 20.0995 22.2731 19.8928 22.4255 19.7404C22.5778 19.588 22.7845 19.5024 23 19.5024C23.2155 19.5024 23.4221 19.588 23.5745 19.7404C23.7269 19.8928 23.8125 20.0995 23.8125 20.3149V26.8149H27.875C28.0905 26.8149 28.2971 26.9005 28.4495 27.0529C28.6019 27.2053 28.6875 27.412 28.6875 27.6274C28.6875 27.8429 28.6019 28.0496 28.4495 28.202C28.2971 28.3543 28.0905 28.4399 27.875 28.4399Z" fill="white"/>
</svg>
