<svg width="40" height="40" viewBox="0 0 40 40" fill="none" xmlns="http://www.w3.org/2000/svg">
<path d="M30.7811 37.4963C30.518 37.4973 30.2613 37.4153 30.0475 37.2619L19.9999 29.9776L9.95223 37.2619C9.73757 37.4176 9.47896 37.501 9.21378 37.5001C8.9486 37.4991 8.6906 37.4138 8.47708 37.2566C8.26355 37.0993 8.10557 36.8782 8.02597 36.6253C7.94637 36.3723 7.94927 36.1006 8.03426 35.8494L11.953 24.2424L1.79676 17.2776C1.57677 17.1269 1.41074 16.9098 1.32291 16.658C1.23509 16.4062 1.23008 16.1329 1.30863 15.8781C1.38717 15.6233 1.54514 15.4003 1.75947 15.2416C1.97379 15.083 2.23323 14.997 2.49989 14.9963H15.0296L18.8108 3.35959C18.8923 3.10836 19.0512 2.88938 19.2648 2.73408C19.4785 2.57877 19.7358 2.49512 19.9999 2.49512C20.264 2.49512 20.5213 2.57877 20.7349 2.73408C20.9486 2.88938 21.1075 3.10836 21.189 3.35959L24.9702 15.0002H37.4999C37.7669 15.0001 38.0269 15.0854 38.2419 15.2438C38.4568 15.4021 38.6154 15.6251 38.6945 15.8802C38.7735 16.1352 38.7688 16.4088 38.6811 16.661C38.5934 16.9131 38.4272 17.1306 38.2069 17.2815L28.0468 24.2424L31.9632 35.8463C32.0266 36.0342 32.0445 36.2344 32.0152 36.4306C31.986 36.6267 31.9105 36.8131 31.7951 36.9743C31.6796 37.1355 31.5274 37.2669 31.3511 37.3576C31.1748 37.4484 30.9794 37.4959 30.7811 37.4963Z" fill="#F4AC2C"/>
</svg>
