<svg width="40" height="40" viewBox="0 0 40 40" fill="none" xmlns="http://www.w3.org/2000/svg">
<path d="M30.7802 36.9963L30.7792 36.9963C30.6216 36.9969 30.4679 36.9479 30.3397 36.8562C30.3395 36.856 30.3393 36.8558 30.339 36.8557L20.2934 29.5727L19.9999 29.36L19.7064 29.5727L9.65875 36.8571L9.65867 36.8572C9.52987 36.9506 9.3747 37.0006 9.2156 37.0001C9.05649 36.9995 8.90169 36.9483 8.77358 36.854C8.64546 36.7596 8.55067 36.627 8.50291 36.4752C8.45515 36.3234 8.45689 36.1604 8.50789 36.0097L8.50799 36.0094L12.4267 24.4023L12.5477 24.044L12.2358 23.83L2.07954 16.8652L2.07933 16.8651C1.94733 16.7746 1.84771 16.6444 1.79502 16.4933L1.32532 16.6572L1.79502 16.4933C1.74232 16.3422 1.73932 16.1783 1.78645 16.0254C1.83357 15.8725 1.92836 15.7387 2.05695 15.6435C2.18538 15.5484 2.34081 15.4969 2.50058 15.4963H15.0296H15.3928L15.5051 15.1508L19.2864 3.51411L19.2865 3.5138C19.3353 3.36306 19.4307 3.23168 19.5589 3.13849C19.687 3.04531 19.8414 2.99512 19.9999 2.99512C20.1584 2.99512 20.3127 3.04531 20.4409 3.13849C20.5691 3.23168 20.6645 3.36306 20.7133 3.5138L20.7134 3.51406L24.4947 15.1547L24.6069 15.5002H24.9702H37.4999H37.5001C37.6603 15.5001 37.8163 15.5514 37.9453 15.6464L38.2419 15.2438L37.9453 15.6464C38.0743 15.7414 38.1695 15.8752 38.2169 16.0282C38.2643 16.1812 38.2615 16.3454 38.2089 16.4967C38.1562 16.648 38.0565 16.7784 37.9244 16.869L37.9243 16.869L27.7642 23.8299L27.452 24.0438L27.573 24.4023L31.4894 36.0062L31.4895 36.0063C31.5275 36.119 31.5382 36.2392 31.5207 36.3569C31.5032 36.4745 31.4579 36.5864 31.3886 36.6831L31.7951 36.9743L31.3886 36.6831C31.3193 36.7798 31.228 36.8586 31.1222 36.9131C31.0164 36.9676 30.8992 36.9961 30.7802 36.9963Z" fill="#333351" stroke="#4B4C67"/>
</svg>
