<svg width="48" height="48" viewBox="0 0 48 48" fill="none" xmlns="http://www.w3.org/2000/svg">
<!-- <circle cx="24" cy="24" r="23.25" stroke="white" stroke-width="1.5"/> -->
<path d="M17.3734 12.3374L17.3722 12.3608C17.8074 12.3825 18.1431 12.7564 18.1431 13.1931V14.003V14.0265H18.1666H29.8332H29.8567V14.003V13.1697C29.8567 13.0601 29.879 12.9516 29.9221 12.8508C29.9653 12.75 30.0285 12.6591 30.1079 12.5834C30.1872 12.5078 30.2811 12.4491 30.3839 12.4108C30.4866 12.3725 30.596 12.3555 30.7055 12.3608C31.1407 12.3825 31.4765 12.7564 31.4765 13.1931V14.003V14.0265H31.4999H32.3332C33.2111 14.0265 34.053 14.3752 34.6737 14.9959C35.2944 15.6166 35.6431 16.4585 35.6431 17.3363V17.9613C35.6431 18.0104 35.6237 18.0574 35.589 18.0921C35.5543 18.1268 35.5073 18.1462 35.4582 18.1462H12.5416C12.4925 18.1462 12.4455 18.1268 12.4108 18.0921C12.3762 18.0574 12.3567 18.0104 12.3567 17.9613V17.3363C12.3567 16.4585 12.7054 15.6166 13.3261 14.9959C13.9469 14.3752 14.7887 14.0265 15.6666 14.0265H16.4999H16.5234V14.003V13.1697C16.5234 13.0601 16.5456 12.9516 16.5888 12.8508C16.632 12.75 16.6952 12.6591 16.7745 12.5834C16.8539 12.5078 16.9478 12.4491 17.0505 12.4108C17.1533 12.3725 17.2627 12.3555 17.3722 12.3608L17.3734 12.3374ZM17.3734 12.3374C17.2607 12.332 17.1481 12.3495 17.0424 12.3888C16.9367 12.4282 16.84 12.4886 16.7584 12.5665C16.6767 12.6443 16.6117 12.7379 16.5673 12.8416C16.5228 12.9452 16.4999 13.0569 16.4999 13.1697V13.9796L31.4999 13.1931C31.4999 12.7447 31.1551 12.3598 30.7067 12.3374C30.594 12.332 30.4814 12.3495 30.3757 12.3888C30.27 12.4282 30.1734 12.4886 30.0917 12.5665C30.01 12.6443 29.945 12.7379 29.9006 12.8416C29.8562 12.9452 29.8333 13.0569 29.8332 13.1697V13.9796V14.003H29.8098H18.19H18.1666V13.9796V13.1931C18.1666 12.7447 17.8218 12.3598 17.3734 12.3374ZM12.4895 19.8598H35.5103C35.5456 19.8598 35.5793 19.8738 35.6042 19.8987C35.6292 19.9236 35.6431 19.9574 35.6431 19.9926V32.3363C35.6431 33.2142 35.2944 34.0561 34.6737 34.6768C34.053 35.2975 33.2111 35.6462 32.3332 35.6462H15.6666C14.7887 35.6462 13.9469 35.2975 13.3261 34.6768C12.7054 34.0561 12.3567 33.2142 12.3567 32.3363V19.9926C12.3567 19.9574 12.3707 19.9236 12.3956 19.8987C12.4205 19.8738 12.4543 19.8598 12.4895 19.8598ZM21.914 27.7504C22.1974 27.467 22.3567 27.0825 22.3567 26.6817V22.991C22.3567 22.5902 22.1974 22.2057 21.914 21.9223C21.6305 21.6388 21.2461 21.4796 20.8452 21.4796H17.1546C16.7537 21.4796 16.3693 21.6388 16.0858 21.9223C15.8024 22.2057 15.6431 22.5902 15.6431 22.991V26.6817C15.6431 27.0825 15.8024 27.467 16.0858 27.7504C16.3693 28.0339 16.7537 28.1931 17.1546 28.1931H20.8452C21.2461 28.1931 21.6305 28.0339 21.914 27.7504Z" fill="white" stroke="white" stroke-width="0.046875"/>
</svg>
