<svg width="42" height="42" viewBox="0 0 42 42" fill="none" xmlns="http://www.w3.org/2000/svg">
<rect width="42" height="42" rx="10" fill="white"/>
<path d="M20.9994 11.1187C15.5526 11.1187 11.1211 15.5501 11.1211 20.9969C11.1211 26.4438 15.5526 30.8752 20.9994 30.8752C26.4462 30.8752 30.8777 26.4438 30.8777 20.9969C30.8777 15.5501 26.4462 11.1187 20.9994 11.1187ZM24.7987 21.7568H21.7592V24.7963C21.7592 24.9978 21.6792 25.1911 21.5367 25.3336C21.3942 25.4761 21.2009 25.5561 20.9994 25.5561C20.7979 25.5561 20.6046 25.4761 20.4621 25.3336C20.3196 25.1911 20.2395 24.9978 20.2395 24.7963V21.7568H17.2C16.9985 21.7568 16.8052 21.6768 16.6627 21.5342C16.5202 21.3917 16.4402 21.1985 16.4402 20.9969C16.4402 20.7954 16.5202 20.6021 16.6627 20.4596C16.8052 20.3171 16.9985 20.2371 17.2 20.2371H20.2395V17.1976C20.2395 16.9961 20.3196 16.8028 20.4621 16.6603C20.6046 16.5178 20.7979 16.4377 20.9994 16.4377C21.2009 16.4377 21.3942 16.5178 21.5367 16.6603C21.6792 16.8028 21.7592 16.9961 21.7592 17.1976V20.2371H24.7987C25.0003 20.2371 25.1935 20.3171 25.336 20.4596C25.4785 20.6021 25.5586 20.7954 25.5586 20.9969C25.5586 21.1985 25.4785 21.3917 25.336 21.5342C25.1935 21.6768 25.0003 21.7568 24.7987 21.7568Z" fill="#691F5F"/>
</svg>
