<?xml version="1.0" encoding="UTF-8"?>
<svg id="Layer_1" data-name="Layer 1" xmlns="http://www.w3.org/2000/svg" version="1.1" viewBox="0 0 512 512">
  <defs>
    <style>
      .cls-1 {
        fill: #000;
        fill-rule: evenodd;
        stroke-width: 0px;
      }
    </style>
  </defs>
  <path class="cls-1" d="M464,216.6H48v28.7c0,4,3.2,7.2,7.2,7.2h7.2v78.9c0,4,3.2,7.2,7.2,7.2h35.9c4,0,7.2-3.2,7.2-7.2v-78.9h286.9v78.9c0,4,3.2,7.2,7.2,7.2h35.9c4,0,7.2-3.2,7.2-7.2v-78.9h7.2c4,0,7.2-3.2,7.2-7.2v-28.7ZM48,202.2h416v-17.3c0-6.3-5.1-11.4-11.4-11.4H59.4c-6.3,0-11.4,5.1-11.4,11.4v17.3Z"/>
</svg>